<?xml version="1.0" standalone="no"?>
<!DOCTYPE svg PUBLIC "-//W3C//DTD SVG 20010904//EN"
 "http://www.w3.org/TR/2001/REC-SVG-20010904/DTD/svg10.dtd">
<svg version="1.0" xmlns="http://www.w3.org/2000/svg"
 width="280.000000pt" height="280.000000pt" viewBox="0 0 280.000000 280.000000"
 preserveAspectRatio="xMidYMid meet">
<metadata>
Created by potrace 1.14, written by Peter Selinger 2001-2017
</metadata>
<g transform="translate(0.000000,280.000000) scale(0.100000,-0.100000)"
fill="#000000" stroke="none">
<path d="M1338 2206 c-95 -26 -173 -105 -199 -200 -33 -123 31 -265 145 -321
112 -55 224 -40 314 40 119 107 127 282 18 403 -64 71 -184 105 -278 78z"/>
<path d="M983 1575 c-22 -16 -23 -21 -23 -199 0 -224 -5 -216 128 -216 l92 0
0 -324 c0 -237 3 -327 12 -332 18 -11 449 -14 470 -3 17 9 18 33 18 393 0 320
-3 391 -16 436 -29 97 -74 150 -171 199 -71 35 -160 51 -328 57 -139 5 -163 4
-182 -11z"/>
</g>
</svg>
